# xmcd
#
# Track frame offsets: 
#        150
#        11703
#        23611
#        35092
#        45622
#        56525
#        69268
#        79304
#        91476
#        102025
#        113136
#        119446
#        128906
#        142251
#        152371
#        164683
#        176850
#        189070
#        204583
#        215248
#        224152
#        236713
#        249912
#        260868
#        270912
#        282123
#        295321
#        304894
#        314591
#        323949
#        332801
#        340602
#        352823
#        365754
#        377058
#        390138
#
# Disc length: 5346 seconds
#
# Revision: 2
# Processed by: cddbd v1.5.2PL0 Copyright (c) Steve Scherf et al.
# Submitted via: ExactAudioCopyFreeDBPlugin 1.0
#
DISCID=2b14e024
DTITLE=Various Artist - The Sun Country Box:  Country Music Recorded 
DTITLE=by Sam Phillips, 1950-1959 [Bear Family]
DYEAR=2013
DGENRE=Country
TTITLE0=Johnny Bernero - The Girl with Green Eyes
TTITLE1=Malcolm Yelvington - Yakety Yak
TTITLE2=Malcolm Yelvington - Way Down Blues
TTITLE3=Malcolm Yelvington - Rockin' with My Baby
TTITLE4=Malcolm Yelvington - It's Me Baby
TTITLE5=Malcolm Yelvington - Goodbye Marie
TTITLE6=Malcolm Yelvington - Mr. Blues
TTITLE7=Malcolm Yelvington - First and Last Love
TTITLE8=Malcolm Yelvington - Did I Ask You to Stay
TTITLE9=Malcolm Yelvington - Trumpet
TTITLE10=Malcolm Yelvington - Goin' to Sea
TTITLE11=Charlie Feathers - Runnin' Around
TTITLE12=Charlie Feathers - I've Been Deceived (1)
TTITLE13=Charlie Feathers - Peepin' Eyes
TTITLE14=Charlie Feathers - I've Been Deceived (2)
TTITLE15=Charlie Feathers - We're Getting Closer to Being Apart
TTITLE16=Charlie Feathers - Defrost Your Heart
TTITLE17=Charlie Feathers - Wedding Gown of White
TTITLE18=Charlie Feathers - Bottle to the Baby
TTITLE19=Charlie Feathers - Man in Love
TTITLE20=Maggie Sue Wimberley - How Long
TTITLE21=Maggie Sue Wimberley - Daydreams Come True
TTITLE22=Jimmy Haggett - No More
TTITLE23=Jimmy Haggett - They Call Our Love a Sin
TTITLE24=Maggie Sue Wimberley - They Who Condemn
TTITLE25=Maggie Sue Wimberley - Call Me Anything
TTITLE26=Maggie Sue Wimberley - Rock and Roll Cinnamon Tree
TTITLE27=Jimmy Haggett - How Come You to Me
TTITLE28=Jimmy Haggett - Rhythm Called Rock and Roll
TTITLE29=Jimmy Haggett - Rock Me Baby
TTITLE30=Jimmy Haggett - Rabbit Action
TTITLE31=The Miller Sisters - Someday You Will Pay
TTITLE32=The Miller Sisters - You Didn't Think I Would
TTITLE33=The Miller Sisters - Look What You've Done
TTITLE34=The Miller Sisters - I Know I Can't Forget You
TTITLE35=The Miller Sisters - There's No Right Way
EXTD=
EXTT0=
EXTT1=
EXTT2=
EXTT3=
EXTT4=
EXTT5=
EXTT6=
EXTT7=
EXTT8=
EXTT9=
EXTT10=
EXTT11=
EXTT12=
EXTT13=
EXTT14=
EXTT15=
EXTT16=
EXTT17=
EXTT18=
EXTT19=
EXTT20=
EXTT21=
EXTT22=
EXTT23=
EXTT24=
EXTT25=
EXTT26=
EXTT27=
EXTT28=
EXTT29=
EXTT30=
EXTT31=
EXTT32=
EXTT33=
EXTT34=
EXTT35=
PLAYORDER=
